# xmcd
#
# Track frame offsets:
#	183
#	16565
#	26390
#	35075
#	48695
#	56830
#	69045
#	76930
#	87833
#	95298
#	106820
#	122765
#	137740
#
# Disc length: 2025 seconds
#
# Revision: 1
# Processed by: cddbd v1.4PL0 Copyright (c) Steve Scherf et al.
# Submitted via: MusicWizard 6.0.0
#
DISCID=9a07e70d
DTITLE=Various Artist - 'Til Things Are Brighter - A Tribute To Johnny Cash
DYEAR=1900
DGENRE=Country
TTITLE0=Michelle Shocked - One Piece At A Time
TTITLE1=Stephen Mallinder - I Walk The Line
TTITLE2=Steve Mack - Rosanna's Goin' Wild
TTITLE3=Sally Timms - Cry, Cry, Cry
TTITLE4=David Mccomb - Country Boy
TTITLE5=Marc Riley - Wanted Man
TTITLE6=Peter Shelley - Straight 'A's In Love
TTITLE7=Cathal Coughlan - Ring Of Fire
TTITLE8=Tracey And Melissa Behive - Five Feet High And Risin'
TTITLE9=Brendon Croker And The 5 O'Clock Shadows - Home Of The Blues
TTITLE10=Mary Mary - Boy Named Sue
TTITLE11=Mekons - Folsom Prison Blues
TTITLE12=Marc Almond - Man In Black
EXTD=
EXTT0=
EXTT1=
EXTT2=
EXTT3=
EXTT4=
EXTT5=
EXTT6=
EXTT7=
EXTT8=
EXTT9=
EXTT10=
EXTT11=
EXTT12=
PLAYORDER=
